<svg clip-rule="evenodd" fill-rule="evenodd" stroke-linejoin="round" stroke-miterlimit="2" viewBox="0 0 2500 2500" xmlns="http://www.w3.org/2000/svg"><g fill-rule="nonzero"><path d="m2059.59 324.285c-75.185 53.665-218.11 127.455-402.72 81.99-319.35-79.005-410.91-354.035-410.91-354.035s-91.56 275.775-410.91 354.035c-184.61 45.465-327.535-27.58-402.72-81.99h-57.32v1485.46c0 37.265 8.935 111.8 69.975 185.59 75.185 91.675 202.48 150.56 378.9 175.9 140.69 20.125 244.165 64.845 317.115 134.905 53.595 52.175 104.96 141.615 104.96 141.615s52.855-91.675 104.96-141.615c72.95-70.805 177.17-114.785 317.115-134.905 176.425-25.34 303.715-84.97 378.9-175.9 61.04-73.79 69.975-148.325 69.975-185.59v-1485.46z" fill="#fff"/><path d="m2064.8 382.42s-174.935 136.4-420.59 74.535c-286.595-71.555-398.255-286.955-398.255-286.955s-111.66 215.405-398.255 286.955c-245.655 61.865-420.59-74.535-420.59-74.535v1427.33c0 48.445 20.1 254.16 404.21 310.06 151.86 21.615 265.01 70.805 346.145 149.07 29.03 28.325 51.365 56.645 68.485 82.735 17.12-26.085 39.455-55.155 68.485-82.735 81.14-78.26 194.29-127.455 346.145-149.07 384.11-55.9 404.21-261.615 404.21-310.06v-1427.33z" fill="#013369"/><path d="m1245.95 2207.02s111.66-137.145 400.49-181.865c331.26-51.43 321.58-207.205 321.58-214.66v-748.325h-1444.88v747.58c0 8.2-9.675 163.975 321.58 214.66 289.575 44.72 401.235 182.61 401.235 182.61z" fill="#fff"/><path d="m909.48 1608.51v-355.53l-44.665-25.34v-92.42h202.48v92.42l-42.43 25.34v725.215l-108.685-32.795-157.07-463.6v305.59l49.875 38.01v93.915l-217.365-55.155v-80.495l49.875-19.38v-512.05l-50.62-24.595v-92.42h164.515zm372.945 324.97 43.175 52.175v92.42l-215.875-80.495v-78.26l47.64-19.38v-646.21l-47.64-23.85v-93.17h374.435v187.825h-82.63l-25.31-76.77h-95.285v216.895h71.465l28.285-40.995h57.32v191.555h-57.32l-26.8-38.76h-72.95v357.02zm238.21 32.795v-92.42l53.595-43.975v-576.895l-45.41-23.85v-93.17h215.875v93.17l-42.43 23.85v541.12l93.05-25.34 17.865-141.615h87.84v237.02l-380.39 102.11z" fill="#d50a0a"/><path d="m561.1 908.635-65.505-49.195h79.65l26.055-76.025 26.055 76.025h79.65l-65.505 49.195 23.82 76.77-64.765-45.465-64.765 45.465zm283.62 0-65.505-49.195h79.65l26.055-76.025 26.055 76.025h79.65l-65.505 49.195 23.82 76.77-64.765-45.465-64.765 45.465zm-283.62-255.65-65.505-49.195h79.65l26.055-76.025 26.055 76.025h79.65l-65.505 49.195 23.82 76.77-64.765-45.465-64.765 45.465zm283.62 0-65.505-49.195h79.65l26.055-76.025 26.055 76.025h79.65l-65.505 49.195 23.82 76.77-64.765-45.465-64.765 45.465zm1109.9 333.17-64.765-45.465-64.765 45.465 23.82-76.77-65.505-49.195h80.395l26.055-76.025 26.055 76.025h79.65l-65.505 49.195zm-282.875 0-64.765-45.465-64.765 45.465 23.82-76.77-65.505-49.195h79.65l26.055-76.025 26.055 76.025h79.65l-65.505 49.195zm282.875-256.4-64.765-45.465-64.765 45.465 23.82-76.77-65.505-49.195h80.395l26.055-76.025 26.055 76.025h79.65l-65.505 49.195zm-282.875 0-64.765-45.465-64.765 45.465 23.82-76.77-65.505-49.195h79.65l26.055-76.025 26.055 76.025h79.65l-65.505 49.195zm-245.655-282.485c6.7-.745 10.42 7.455 14.145 12.67 28.285 71.555 35.73 158.76 14.145 242.235-32.755 127.455-139.95 244.47-369.97 274.285-5.21.745-11.165-.745-11.91-3.725 10.42-48.445 36.475-140.87 92.305-238.51 10.42 6.71 20.845 13.415 30.52 20.87 3.72-5.965 8.19-12.67 14.89-23.85-28.285-22.36-61.04-38.01-97.515-44.72 0 0-6.7 14.16-11.91 24.595 0 0 14.145 2.98 31.265 8.945-49.875 105.84-66.995 204.225-71.465 248.945-14.145-22.36-25.31-74.535-29.03-102.855-36.475-268.325 156.325-424.845 366.245-427.825 14.145-.745 19.355 2.235 19.355 2.235s-46.155 17.145-99.75 58.135c0 0-12.655-5.215-26.055-8.945-8.19 5.215-17.12 11.18-25.31 17.145 25.31 5.965 57.32 18.635 87.84 43.975 6.7-5.965 13.4-12.67 20.845-19.38-7.445-5.965-19.355-14.16-29.775-20.125 47.64-46.21 81.14-64.1 81.14-64.1zm-198.01 253.415c5.21-7.455 11.165-16.4 17.12-25.34-23.82-20.125-58.065-39.505-99.75-47.7-5.955 8.945-16.375 26.085-16.375 26.085 34.245 6.71 69.23 22.36 99.005 46.955zm37.965-52.92c5.955-8.2 11.91-15.65 18.61-23.85-32.755-26.83-69.975-42.485-99.005-47.7-6.7 7.455-13.4 15.65-19.355 23.105 37.965 7.455 72.205 25.34 99.75 48.445zm42.43-50.685c5.955-7.455 12.655-14.16 20.845-21.615-20.1-16.4-49.13-35.775-92.305-46.21-7.445 5.965-16.375 12.67-24.565 20.87 34.245 7.455 66.995 23.105 96.03 46.955z" fill="#fff"/></g></svg>